<?xml version="1.0" encoding="utf-8" standalone="no"?>
<!DOCTYPE svg PUBLIC "-//W3C//DTD SVG 1.1//EN"
  "http://www.w3.org/Graphics/SVG/1.1/DTD/svg11.dtd">
<svg xmlns:xlink="http://www.w3.org/1999/xlink" width="971.928pt" height="632.058221pt" viewBox="0 0 971.928 632.058221" xmlns="http://www.w3.org/2000/svg" version="1.1">
 <metadata>
  <rdf:RDF xmlns:dc="http://purl.org/dc/elements/1.1/" xmlns:cc="http://creativecommons.org/ns#" xmlns:rdf="http://www.w3.org/1999/02/22-rdf-syntax-ns#">
   <cc:Work>
    <dc:type rdf:resource="http://purl.org/dc/dcmitype/StillImage"/>
    <dc:date>2026-04-28T10:34:12.671255</dc:date>
    <dc:format>image/svg+xml</dc:format>
    <dc:creator>
     <cc:Agent>
      <dc:title>Matplotlib v3.8.2, https://matplotlib.org/</dc:title>
     </cc:Agent>
    </dc:creator>
   </cc:Work>
  </rdf:RDF>
 </metadata>
 <defs>
  <style type="text/css">*{stroke-linejoin: round; stroke-linecap: butt}</style>
 </defs>
 <g id="figure_1">
  <g id="patch_1">
   <path d="M 0 632.058221 
L 971.928 632.058221 
L 971.928 0 
L 0 0 
z
" style="fill: #ffffff"/>
  </g>
  <g id="axes_1">
   <g id="table_1">
    <g id="patch_2">
     <path d="M 27.288 57.096 
L 161.208 57.096 
L 161.208 7.2 
L 27.288 7.2 
z
" style="fill: #ffffff; stroke: #ffffff; stroke-linejoin: miter"/>
    </g>
    <g id="text_1">
     <!-- $\textit{f}_1$ (kUSD) -->
     <g transform="translate(51.65012 37.377725) scale(0.21 -0.21)">
      <defs>
       <path id="CMTI12-66" d="M 1741 2566 
L 2240 2566 
C 2349 2566 2413 2566 2413 2681 
C 2413 2752 2368 2752 2259 2752 
L 1773 2752 
C 1830 3034 1869 3271 1978 3798 
C 2035 4087 2106 4416 2342 4416 
C 2362 4416 2522 4416 2618 4291 
C 2400 4245 2362 4068 2362 3996 
C 2362 3870 2451 3804 2560 3804 
C 2707 3804 2854 3922 2854 4138 
C 2854 4393 2605 4544 2342 4544 
C 1728 4544 1568 3691 1523 3468 
L 1389 2752 
L 986 2752 
C 877 2752 819 2752 819 2630 
C 819 2566 870 2566 973 2566 
L 1350 2566 
L 896 238 
C 819 -144 806 -200 704 -588 
C 634 -854 557 -1152 326 -1152 
C 301 -1152 141 -1152 58 -1031 
C 294 -986 320 -796 320 -745 
C 320 -625 230 -562 122 -562 
C -26 -562 -173 -676 -173 -886 
C -173 -1134 64 -1280 326 -1280 
C 845 -1280 1146 -480 1344 542 
L 1741 2566 
z
" transform="scale(0.015625)"/>
       <path id="CMR17-31" d="M 1702 4058 
C 1702 4192 1696 4192 1606 4192 
C 1357 3916 979 3827 621 3827 
C 602 3827 570 3827 563 3808 
C 557 3795 557 3782 557 3648 
C 755 3648 1088 3686 1344 3839 
L 1344 461 
C 1344 236 1331 160 781 160 
L 589 160 
L 589 0 
C 896 0 1216 0 1523 0 
C 1830 0 2150 0 2458 0 
L 2458 160 
L 2266 160 
C 1715 160 1702 230 1702 458 
L 1702 4058 
z
" transform="scale(0.015625)"/>
       <path id="CMR17-28" d="M 1958 -1561 
C 1958 -1555 1958 -1542 1939 -1523 
C 1645 -1224 858 -407 858 1581 
C 858 3569 1632 4379 1946 4697 
C 1946 4704 1958 4717 1958 4736 
C 1958 4755 1939 4768 1914 4768 
C 1843 4768 1299 4296 986 3594 
C 666 2887 576 2199 576 1588 
C 576 1128 621 351 1005 -471 
C 1312 -1135 1837 -1600 1914 -1600 
C 1946 -1600 1958 -1587 1958 -1561 
z
" transform="scale(0.015625)"/>
       <path id="CMR17-6b" d="M 1670 1673 
C 1664 1686 1632 1724 1632 1743 
C 1632 1756 2086 2171 2144 2222 
C 2509 2528 2739 2560 2906 2560 
L 2906 2733 
C 2867 2733 2854 2733 2848 2720 
L 2534 2720 
C 2355 2720 2080 2720 1907 2733 
L 1907 2566 
C 1997 2559 2061 2508 2061 2419 
C 2061 2291 1933 2170 1926 2170 
L 960 1289 
L 960 4396 
L 198 4326 
L 198 4160 
C 576 4160 634 4122 634 3817 
L 634 426 
C 634 184 608 153 198 153 
L 198 -13 
C 352 0 634 0 794 0 
C 954 0 1235 0 1389 -13 
L 1389 153 
C 979 153 954 178 954 428 
L 954 1130 
L 1395 1532 
L 2042 574 
C 2118 459 2182 369 2182 286 
C 2182 172 2067 153 1990 153 
L 1990 -13 
C 2144 0 2419 0 2579 0 
C 2694 0 2931 0 3040 0 
L 3040 153 
C 2739 153 2669 210 2477 491 
L 1670 1673 
z
" transform="scale(0.015625)"/>
       <path id="CMR17-55" d="M 3456 1433 
C 3456 579 2899 38 2291 38 
C 1965 38 1670 210 1491 477 
C 1286 783 1261 1178 1261 1401 
L 1261 3874 
C 1261 4160 1331 4160 1773 4160 
L 1773 4320 
C 1587 4320 1248 4320 1050 4320 
C 851 4320 512 4320 326 4320 
L 326 4160 
C 768 4160 838 4160 838 3874 
L 838 1433 
C 838 516 1536 -128 2278 -128 
C 3110 -128 3590 719 3590 1344 
L 3590 3766 
C 3590 4122 3917 4160 4102 4160 
L 4102 4326 
C 3955 4320 3686 4320 3526 4320 
C 3366 4320 3091 4320 2944 4326 
L 2944 4160 
C 3456 4160 3456 3861 3456 3702 
L 3456 1433 
z
" transform="scale(0.015625)"/>
       <path id="CMR17-53" d="M 2803 4290 
C 2803 4404 2797 4411 2758 4411 
C 2720 4411 2707 4385 2682 4328 
L 2490 3907 
C 2246 4257 1875 4416 1472 4416 
C 819 4416 294 3901 294 3253 
C 294 3056 339 2776 557 2510 
C 794 2218 1018 2167 1530 2033 
C 1722 1982 2042 1899 2106 1874 
C 2470 1722 2662 1341 2662 985 
C 2662 527 2336 38 1779 38 
C 1094 38 454 419 410 1311 
C 403 1413 397 1419 352 1419 
C 301 1419 294 1413 294 1285 
L 294 -1 
C 294 -115 301 -122 339 -122 
C 384 -122 397 -90 486 108 
C 493 127 493 140 614 381 
C 934 -39 1472 -128 1779 -128 
C 2477 -128 2970 451 2970 1124 
C 2970 1454 2848 1708 2778 1823 
C 2509 2230 2221 2306 1914 2382 
C 1869 2402 1856 2402 1498 2490 
C 1152 2579 1005 2624 845 2796 
C 666 2992 602 3196 602 3399 
C 602 3812 934 4263 1478 4263 
C 2157 4263 2579 3786 2675 2993 
C 2694 2878 2701 2872 2746 2872 
C 2803 2872 2803 2891 2803 2999 
L 2803 4290 
z
" transform="scale(0.015625)"/>
       <path id="CMR17-44" d="M 333 4352 
L 333 4186 
C 774 4186 845 4186 845 3900 
L 845 452 
C 845 166 774 166 333 166 
L 333 0 
L 2368 0 
C 3398 0 4224 943 4224 2141 
C 4224 3346 3411 4352 2368 4352 
L 333 4352 
z
M 1523 166 
C 1267 166 1254 197 1254 414 
L 1254 3938 
C 1254 4155 1267 4186 1523 4186 
L 2240 4186 
C 2771 4186 3750 3874 3750 2141 
C 3750 1242 3488 879 3366 707 
C 3213 510 2848 166 2240 166 
L 1523 166 
z
" transform="scale(0.015625)"/>
       <path id="CMR17-29" d="M 1683 1581 
C 1683 2040 1638 2817 1254 3639 
C 947 4303 422 4768 346 4768 
C 326 4768 301 4761 301 4729 
C 301 4717 307 4710 314 4697 
C 621 4378 1402 3568 1402 1584 
C 1402 -407 627 -1217 314 -1537 
C 307 -1549 301 -1556 301 -1568 
C 301 -1600 326 -1600 346 -1600 
C 416 -1600 960 -1128 1274 -426 
C 1594 281 1683 969 1683 1581 
z
" transform="scale(0.015625)"/>
      </defs>
      <use xlink:href="#CMTI12-66" transform="scale(0.996264)"/>
      <use xlink:href="#CMR17-31" transform="translate(29.888224 -22.858631) scale(0.697382)"/>
      <use xlink:href="#CMR17-28" transform="translate(92.445505 0) scale(0.996264)"/>
      <use xlink:href="#CMR17-6b" transform="translate(127.726272 0) scale(0.996264)"/>
      <use xlink:href="#CMR17-55" transform="translate(176.019188 0) scale(0.996264)"/>
      <use xlink:href="#CMR17-53" transform="translate(245.091618 0) scale(0.996264)"/>
      <use xlink:href="#CMR17-44" transform="translate(295.986988 0) scale(0.996264)"/>
      <use xlink:href="#CMR17-29" transform="translate(366.380544 0) scale(0.996264)"/>
     </g>
    </g>
    <g id="patch_3">
     <path d="M 27.288 106.992 
L 161.208 106.992 
L 161.208 57.096 
L 27.288 57.096 
z
" style="fill: #f30000; fill-opacity: 0.5; stroke: #ffffff; stroke-linejoin: miter"/>
    </g>
    <g id="text_2">
     <!-- 1623.6 -->
     <g transform="translate(67.649039 87.273717) scale(0.21 -0.21)">
      <defs>
       <path id="CMR17-36" d="M 678 2176 
C 678 3690 1395 4032 1811 4032 
C 1946 4032 2272 4009 2400 3776 
C 2298 3776 2106 3776 2106 3553 
C 2106 3381 2246 3323 2336 3323 
C 2394 3323 2566 3348 2566 3560 
C 2566 3954 2246 4179 1805 4179 
C 1043 4179 243 3390 243 1984 
C 243 253 966 -128 1478 -128 
C 2099 -128 2688 427 2688 1283 
C 2688 2081 2170 2662 1517 2662 
C 1126 2662 838 2407 678 1960 
L 678 2176 
z
M 1478 25 
C 691 25 691 1200 691 1436 
C 691 1896 909 2560 1504 2560 
C 1613 2560 1926 2560 2138 2120 
C 2253 1870 2253 1609 2253 1289 
C 2253 944 2253 690 2118 434 
C 1978 171 1773 25 1478 25 
z
" transform="scale(0.015625)"/>
       <path id="CMR17-32" d="M 2669 989 
L 2554 989 
C 2490 536 2438 459 2413 420 
C 2381 369 1920 369 1830 369 
L 602 369 
C 832 619 1280 1072 1824 1597 
C 2214 1967 2669 2402 2669 3035 
C 2669 3790 2067 4224 1395 4224 
C 691 4224 262 3604 262 3030 
C 262 2780 448 2748 525 2748 
C 589 2748 781 2787 781 3010 
C 781 3207 614 3264 525 3264 
C 486 3264 448 3258 422 3245 
C 544 3790 915 4058 1306 4058 
C 1862 4058 2227 3617 2227 3035 
C 2227 2479 1901 2000 1536 1584 
L 262 146 
L 262 0 
L 2515 0 
L 2669 989 
z
" transform="scale(0.015625)"/>
       <path id="CMR17-33" d="M 1414 2157 
C 1984 2157 2234 1662 2234 1090 
C 2234 320 1824 25 1453 25 
C 1114 25 563 194 390 693 
C 422 680 454 680 486 680 
C 640 680 755 782 755 948 
C 755 1133 614 1216 486 1216 
C 378 1216 211 1165 211 926 
C 211 335 787 -128 1466 -128 
C 2176 -128 2720 430 2720 1085 
C 2720 1707 2208 2157 1600 2227 
C 2086 2328 2554 2756 2554 3329 
C 2554 3820 2048 4179 1472 4179 
C 890 4179 378 3829 378 3329 
C 378 3110 544 3072 627 3072 
C 762 3072 877 3155 877 3321 
C 877 3486 762 3569 627 3569 
C 602 3569 570 3569 544 3557 
C 730 3959 1235 4032 1459 4032 
C 1683 4032 2106 3925 2106 3320 
C 2106 3143 2080 2828 1862 2550 
C 1670 2304 1453 2304 1242 2284 
C 1210 2284 1062 2269 1037 2269 
C 992 2263 966 2257 966 2208 
C 966 2163 973 2157 1101 2157 
L 1414 2157 
z
" transform="scale(0.015625)"/>
       <path id="CMR17-2e" d="M 1062 261 
C 1062 420 934 522 800 522 
C 672 522 538 420 538 261 
C 538 102 666 0 800 0 
C 928 0 1062 102 1062 261 
z
" transform="scale(0.015625)"/>
      </defs>
      <use xlink:href="#CMR17-31" transform="scale(0.996264)"/>
      <use xlink:href="#CMR17-36" transform="translate(45.690477 0) scale(0.996264)"/>
      <use xlink:href="#CMR17-32" transform="translate(91.380954 0) scale(0.996264)"/>
      <use xlink:href="#CMR17-33" transform="translate(137.071431 0) scale(0.996264)"/>
      <use xlink:href="#CMR17-2e" transform="translate(182.761908 0) scale(0.996264)"/>
      <use xlink:href="#CMR17-36" transform="translate(207.632967 0) scale(0.996264)"/>
     </g>
    </g>
    <g id="patch_4">
     <path d="M 27.288 156.888 
L 161.208 156.888 
L 161.208 106.992 
L 27.288 106.992 
z
" style="fill: #fa8072; fill-opacity: 0.5; stroke: #ffffff; stroke-linejoin: miter"/>
    </g>
    <g id="text_3">
     <!-- 1519.7 -->
     <g transform="translate(67.649039 137.169717) scale(0.21 -0.21)">
      <defs>
       <path id="CMR17-35" d="M 730 3692 
C 794 3666 1056 3584 1325 3584 
C 1920 3584 2246 3911 2432 4100 
C 2432 4157 2432 4192 2394 4192 
C 2387 4192 2374 4192 2323 4163 
C 2099 4058 1837 3973 1517 3973 
C 1325 3973 1037 3999 723 4139 
C 653 4171 640 4171 634 4171 
C 602 4171 595 4164 595 4037 
L 595 2203 
C 595 2089 595 2057 659 2057 
C 691 2057 704 2070 736 2114 
C 941 2401 1222 2522 1542 2522 
C 1766 2522 2246 2382 2246 1289 
C 2246 1085 2246 715 2054 421 
C 1894 159 1645 25 1370 25 
C 947 25 518 320 403 814 
C 429 807 480 795 506 795 
C 589 795 749 840 749 1038 
C 749 1210 627 1280 506 1280 
C 358 1280 262 1190 262 1011 
C 262 454 704 -128 1382 -128 
C 2042 -128 2669 440 2669 1264 
C 2669 2030 2170 2624 1549 2624 
C 1222 2624 947 2503 730 2274 
L 730 3692 
z
" transform="scale(0.015625)"/>
       <path id="CMR17-39" d="M 2253 1864 
C 2253 464 1670 31 1190 31 
C 1043 31 685 31 538 294 
C 704 268 826 357 826 518 
C 826 692 685 749 595 749 
C 538 749 365 723 365 506 
C 365 71 742 -128 1203 -128 
C 1939 -128 2688 674 2688 2073 
C 2688 3817 1971 4179 1485 4179 
C 851 4179 243 3628 243 2778 
C 243 1991 762 1408 1414 1408 
C 1952 1408 2189 1903 2253 2112 
L 2253 1864 
z
M 1427 1510 
C 1254 1510 1011 1542 813 1922 
C 678 2169 678 2461 678 2771 
C 678 3146 678 3405 858 3684 
C 947 3817 1114 4032 1485 4032 
C 2240 4032 2240 2885 2240 2632 
C 2240 2182 2035 1510 1427 1510 
z
" transform="scale(0.015625)"/>
       <path id="CMR17-37" d="M 2886 3941 
L 2886 4081 
L 1382 4081 
C 634 4081 621 4165 595 4288 
L 480 4288 
L 294 3094 
L 410 3094 
C 429 3215 474 3540 550 3661 
C 589 3712 1062 3712 1171 3712 
L 2579 3712 
L 1869 2661 
C 1395 1954 1069 999 1069 165 
C 1069 89 1069 -128 1299 -128 
C 1530 -128 1530 89 1530 171 
L 1530 465 
C 1530 1508 1709 2196 2003 2636 
L 2886 3941 
z
" transform="scale(0.015625)"/>
      </defs>
      <use xlink:href="#CMR17-31" transform="scale(0.996264)"/>
      <use xlink:href="#CMR17-35" transform="translate(45.690477 0) scale(0.996264)"/>
      <use xlink:href="#CMR17-31" transform="translate(91.380954 0) scale(0.996264)"/>
      <use xlink:href="#CMR17-39" transform="translate(137.071431 0) scale(0.996264)"/>
      <use xlink:href="#CMR17-2e" transform="translate(182.761908 0) scale(0.996264)"/>
      <use xlink:href="#CMR17-37" transform="translate(207.632967 0) scale(0.996264)"/>
     </g>
    </g>
    <g id="patch_5">
     <path d="M 27.288 206.784 
L 161.208 206.784 
L 161.208 156.888 
L 27.288 156.888 
z
" style="fill: #ff8a14; fill-opacity: 0.5; stroke: #ffffff; stroke-linejoin: miter"/>
    </g>
    <g id="text_4">
     <!-- 1327.5 -->
     <g transform="translate(67.649039 187.065717) scale(0.21 -0.21)">
      <use xlink:href="#CMR17-31" transform="scale(0.996264)"/>
      <use xlink:href="#CMR17-33" transform="translate(45.690477 0) scale(0.996264)"/>
      <use xlink:href="#CMR17-32" transform="translate(91.380954 0) scale(0.996264)"/>
      <use xlink:href="#CMR17-37" transform="translate(137.071431 0) scale(0.996264)"/>
      <use xlink:href="#CMR17-2e" transform="translate(182.761908 0) scale(0.996264)"/>
      <use xlink:href="#CMR17-35" transform="translate(207.632967 0) scale(0.996264)"/>
     </g>
    </g>
    <g id="patch_6">
     <path d="M 27.288 256.68 
L 161.208 256.68 
L 161.208 206.784 
L 27.288 206.784 
z
" style="fill: #3b38ff; fill-opacity: 0.5; stroke: #ffffff; stroke-linejoin: miter"/>
    </g>
    <g id="text_5">
     <!-- 1103.0 -->
     <g transform="translate(67.649039 236.961717) scale(0.21 -0.21)">
      <defs>
       <path id="CMR17-30" d="M 2688 2025 
C 2688 2416 2682 3080 2413 3591 
C 2176 4039 1798 4198 1466 4198 
C 1158 4198 768 4058 525 3597 
C 269 3118 243 2524 243 2025 
C 243 1661 250 1106 448 619 
C 723 -39 1216 -128 1466 -128 
C 1760 -128 2208 -7 2470 600 
C 2662 1042 2688 1559 2688 2025 
z
M 1466 -26 
C 1056 -26 813 325 723 812 
C 653 1188 653 1738 653 2096 
C 653 2588 653 2997 736 3387 
C 858 3929 1216 4096 1466 4096 
C 1728 4096 2067 3923 2189 3400 
C 2272 3036 2278 2607 2278 2096 
C 2278 1680 2278 1169 2202 792 
C 2067 95 1690 -26 1466 -26 
z
" transform="scale(0.015625)"/>
      </defs>
      <use xlink:href="#CMR17-31" transform="scale(0.996264)"/>
      <use xlink:href="#CMR17-31" transform="translate(45.690477 0) scale(0.996264)"/>
      <use xlink:href="#CMR17-30" transform="translate(91.380954 0) scale(0.996264)"/>
      <use xlink:href="#CMR17-33" transform="translate(137.071431 0) scale(0.996264)"/>
      <use xlink:href="#CMR17-2e" transform="translate(182.761908 0) scale(0.996264)"/>
      <use xlink:href="#CMR17-30" transform="translate(207.632967 0) scale(0.996264)"/>
     </g>
    </g>
    <g id="patch_7">
     <path d="M 27.288 306.576 
L 161.208 306.576 
L 161.208 256.68 
L 27.288 256.68 
z
" style="fill: #0979b0; fill-opacity: 0.5; stroke: #ffffff; stroke-linejoin: miter"/>
    </g>
    <g id="text_6">
     <!-- 1029.4 -->
     <g transform="translate(67.649039 286.857717) scale(0.21 -0.21)">
      <defs>
       <path id="CMR17-34" d="M 2150 4122 
C 2150 4256 2144 4256 2029 4256 
L 128 1254 
L 128 1088 
L 1779 1088 
L 1779 457 
C 1779 224 1766 160 1318 160 
L 1197 160 
L 1197 0 
C 1402 0 1747 0 1965 0 
C 2182 0 2528 0 2733 0 
L 2733 160 
L 2611 160 
C 2163 160 2150 224 2150 457 
L 2150 1088 
L 2803 1088 
L 2803 1254 
L 2150 1254 
L 2150 4122 
z
M 1798 3703 
L 1798 1254 
L 256 1254 
L 1798 3703 
z
" transform="scale(0.015625)"/>
      </defs>
      <use xlink:href="#CMR17-31" transform="scale(0.996264)"/>
      <use xlink:href="#CMR17-30" transform="translate(45.690477 0) scale(0.996264)"/>
      <use xlink:href="#CMR17-32" transform="translate(91.380954 0) scale(0.996264)"/>
      <use xlink:href="#CMR17-39" transform="translate(137.071431 0) scale(0.996264)"/>
      <use xlink:href="#CMR17-2e" transform="translate(182.761908 0) scale(0.996264)"/>
      <use xlink:href="#CMR17-34" transform="translate(207.632967 0) scale(0.996264)"/>
     </g>
    </g>
    <g id="patch_8">
     <path d="M 27.288 356.472 
L 161.208 356.472 
L 161.208 306.576 
L 27.288 306.576 
z
" style="fill: #40cfff; fill-opacity: 0.5; stroke: #ffffff; stroke-linejoin: miter"/>
    </g>
    <g id="text_7">
     <!-- 898.2 -->
     <g transform="translate(72.446539 336.753717) scale(0.21 -0.21)">
      <defs>
       <path id="CMR17-38" d="M 1741 2264 
C 2144 2467 2554 2773 2554 3263 
C 2554 3841 1990 4179 1472 4179 
C 890 4179 378 3759 378 3180 
C 378 3021 416 2747 666 2505 
C 730 2442 998 2251 1171 2130 
C 883 1983 211 1634 211 934 
C 211 279 838 -128 1459 -128 
C 2144 -128 2720 362 2720 1010 
C 2720 1590 2330 1857 2074 2029 
L 1741 2264 
z
M 902 2822 
C 851 2854 595 3051 595 3351 
C 595 3739 998 4032 1459 4032 
C 1965 4032 2336 3676 2336 3262 
C 2336 2669 1670 2331 1638 2331 
C 1632 2331 1626 2331 1574 2370 
L 902 2822 
z
M 2080 1519 
C 2176 1449 2483 1240 2483 851 
C 2483 381 2010 25 1472 25 
C 890 25 448 438 448 940 
C 448 1443 838 1862 1280 2060 
L 2080 1519 
z
" transform="scale(0.015625)"/>
      </defs>
      <use xlink:href="#CMR17-38" transform="scale(0.996264)"/>
      <use xlink:href="#CMR17-39" transform="translate(45.690477 0) scale(0.996264)"/>
      <use xlink:href="#CMR17-38" transform="translate(91.380954 0) scale(0.996264)"/>
      <use xlink:href="#CMR17-2e" transform="translate(137.071431 0) scale(0.996264)"/>
      <use xlink:href="#CMR17-32" transform="translate(161.94249 0) scale(0.996264)"/>
     </g>
    </g>
    <g id="patch_9">
     <path d="M 27.288 406.368 
L 161.208 406.368 
L 161.208 356.472 
L 27.288 356.472 
z
" style="fill: #2af04b; fill-opacity: 0.5; stroke: #ffffff; stroke-linejoin: miter"/>
    </g>
    <g id="text_8">
     <!-- 561.9 -->
     <g transform="translate(72.446539 386.649717) scale(0.21 -0.21)">
      <use xlink:href="#CMR17-35" transform="scale(0.996264)"/>
      <use xlink:href="#CMR17-36" transform="translate(45.690477 0) scale(0.996264)"/>
      <use xlink:href="#CMR17-31" transform="translate(91.380954 0) scale(0.996264)"/>
      <use xlink:href="#CMR17-2e" transform="translate(137.071431 0) scale(0.996264)"/>
      <use xlink:href="#CMR17-39" transform="translate(161.94249 0) scale(0.996264)"/>
     </g>
    </g>
    <g id="patch_10">
     <path d="M 27.288 456.264 
L 161.208 456.264 
L 161.208 406.368 
L 27.288 406.368 
z
" style="fill: #6b8e23; fill-opacity: 0.5; stroke: #ffffff; stroke-linejoin: miter"/>
    </g>
    <g id="text_9">
     <!-- 523.0 -->
     <g transform="translate(72.446539 436.545717) scale(0.21 -0.21)">
      <use xlink:href="#CMR17-35" transform="scale(0.996264)"/>
      <use xlink:href="#CMR17-32" transform="translate(45.690477 0) scale(0.996264)"/>
      <use xlink:href="#CMR17-33" transform="translate(91.380954 0) scale(0.996264)"/>
      <use xlink:href="#CMR17-2e" transform="translate(137.071431 0) scale(0.996264)"/>
      <use xlink:href="#CMR17-30" transform="translate(161.94249 0) scale(0.996264)"/>
     </g>
    </g>
    <g id="patch_11">
     <path d="M 27.288 506.16 
L 161.208 506.16 
L 161.208 456.264 
L 27.288 456.264 
z
" style="fill: #abf561; fill-opacity: 0.5; stroke: #ffffff; stroke-linejoin: miter"/>
    </g>
    <g id="text_10">
     <!-- 455.9 -->
     <g transform="translate(72.446539 486.441717) scale(0.21 -0.21)">
      <use xlink:href="#CMR17-34" transform="scale(0.996264)"/>
      <use xlink:href="#CMR17-35" transform="translate(45.690477 0) scale(0.996264)"/>
      <use xlink:href="#CMR17-35" transform="translate(91.380954 0) scale(0.996264)"/>
      <use xlink:href="#CMR17-2e" transform="translate(137.071431 0) scale(0.996264)"/>
      <use xlink:href="#CMR17-39" transform="translate(161.94249 0) scale(0.996264)"/>
     </g>
    </g>
   </g>
   <g id="table_2">
    <g id="patch_12">
     <path d="M 228.168 57.096 
L 362.088 57.096 
L 362.088 7.2 
L 228.168 7.2 
z
" style="fill: #ffffff; stroke: #ffffff; stroke-linejoin: miter"/>
    </g>
    <g id="text_11">
     <!-- $\textit{f}_2$ (\%) -->
     <g transform="translate(269.512252 37.377725) scale(0.21 -0.21)">
      <defs>
       <path id="CMR17-25" d="M 4640 959 
C 4640 1698 4275 2240 3846 2240 
C 3411 2240 2970 1736 2970 959 
C 2970 183 3405 -320 3846 -320 
C 4275 -320 4640 215 4640 959 
z
M 3853 -218 
C 3686 -218 3270 -66 3270 959 
C 3270 1991 3686 2138 3853 2138 
C 4205 2138 4525 1634 4525 959 
C 4525 285 4205 -218 3853 -218 
z
M 4083 4577 
C 4128 4647 4134 4653 4134 4685 
C 4134 4761 4077 4800 4026 4800 
C 3962 4800 3936 4756 3891 4706 
C 3520 4190 3008 4134 2746 4134 
C 2106 4134 1715 4494 1594 4607 
C 1510 4682 1389 4800 1171 4800 
C 736 4800 294 4296 294 3519 
C 294 2743 730 2240 1171 2240 
C 1600 2240 1965 2778 1965 3527 
C 1965 3969 1830 4270 1811 4308 
C 2202 4064 2586 4032 2752 4032 
C 3162 4032 3456 4183 3616 4289 
L 3622 4283 
L 858 -84 
C 800 -174 800 -187 800 -206 
C 800 -276 858 -320 915 -320 
C 973 -320 992 -289 1037 -218 
L 4083 4577 
z
M 1178 2342 
C 1011 2342 595 2494 595 3519 
C 595 4551 1011 4698 1178 4698 
C 1530 4698 1850 4194 1850 3519 
C 1850 2845 1530 2342 1178 2342 
z
" transform="scale(0.015625)"/>
      </defs>
      <use xlink:href="#CMTI12-66" transform="scale(0.996264)"/>
      <use xlink:href="#CMR17-32" transform="translate(29.888224 -22.858631) scale(0.697382)"/>
      <use xlink:href="#CMR17-28" transform="translate(92.445505 0) scale(0.996264)"/>
      <use xlink:href="#CMR17-25" transform="translate(127.726272 0) scale(0.996264)"/>
      <use xlink:href="#CMR17-29" transform="translate(204.645862 0) scale(0.996264)"/>
     </g>
    </g>
    <g id="patch_13">
     <path d="M 228.168 106.992 
L 362.088 106.992 
L 362.088 57.096 
L 228.168 57.096 
z
" style="fill: #6b8e23; fill-opacity: 0.5; stroke: #ffffff; stroke-linejoin: miter"/>
    </g>
    <g id="text_12">
     <!-- 0.736 -->
     <g transform="translate(273.326539 87.273717) scale(0.21 -0.21)">
      <use xlink:href="#CMR17-30" transform="scale(0.996264)"/>
      <use xlink:href="#CMR17-2e" transform="translate(45.690477 0) scale(0.996264)"/>
      <use xlink:href="#CMR17-37" transform="translate(70.561536 0) scale(0.996264)"/>
      <use xlink:href="#CMR17-33" transform="translate(116.252013 0) scale(0.996264)"/>
      <use xlink:href="#CMR17-36" transform="translate(161.94249 0) scale(0.996264)"/>
     </g>
    </g>
    <g id="patch_14">
     <path d="M 228.168 156.888 
L 362.088 156.888 
L 362.088 106.992 
L 228.168 106.992 
z
" style="fill: #2af04b; fill-opacity: 0.5; stroke: #ffffff; stroke-linejoin: miter"/>
    </g>
    <g id="text_13">
     <!-- 0.736 -->
     <g transform="translate(273.326539 137.169717) scale(0.21 -0.21)">
      <use xlink:href="#CMR17-30" transform="scale(0.996264)"/>
      <use xlink:href="#CMR17-2e" transform="translate(45.690477 0) scale(0.996264)"/>
      <use xlink:href="#CMR17-37" transform="translate(70.561536 0) scale(0.996264)"/>
      <use xlink:href="#CMR17-33" transform="translate(116.252013 0) scale(0.996264)"/>
      <use xlink:href="#CMR17-36" transform="translate(161.94249 0) scale(0.996264)"/>
     </g>
    </g>
    <g id="patch_15">
     <path d="M 228.168 206.784 
L 362.088 206.784 
L 362.088 156.888 
L 228.168 156.888 
z
" style="fill: #abf561; fill-opacity: 0.5; stroke: #ffffff; stroke-linejoin: miter"/>
    </g>
    <g id="text_14">
     <!-- 0.735 -->
     <g transform="translate(273.326539 187.065717) scale(0.21 -0.21)">
      <use xlink:href="#CMR17-30" transform="scale(0.996264)"/>
      <use xlink:href="#CMR17-2e" transform="translate(45.690477 0) scale(0.996264)"/>
      <use xlink:href="#CMR17-37" transform="translate(70.561536 0) scale(0.996264)"/>
      <use xlink:href="#CMR17-33" transform="translate(116.252013 0) scale(0.996264)"/>
      <use xlink:href="#CMR17-35" transform="translate(161.94249 0) scale(0.996264)"/>
     </g>
    </g>
    <g id="patch_16">
     <path d="M 228.168 256.68 
L 362.088 256.68 
L 362.088 206.784 
L 228.168 206.784 
z
" style="fill: #40cfff; fill-opacity: 0.5; stroke: #ffffff; stroke-linejoin: miter"/>
    </g>
    <g id="text_15">
     <!-- 0.354 -->
     <g transform="translate(273.326539 236.961717) scale(0.21 -0.21)">
      <use xlink:href="#CMR17-30" transform="scale(0.996264)"/>
      <use xlink:href="#CMR17-2e" transform="translate(45.690477 0) scale(0.996264)"/>
      <use xlink:href="#CMR17-33" transform="translate(70.561536 0) scale(0.996264)"/>
      <use xlink:href="#CMR17-35" transform="translate(116.252013 0) scale(0.996264)"/>
      <use xlink:href="#CMR17-34" transform="translate(161.94249 0) scale(0.996264)"/>
     </g>
    </g>
    <g id="patch_17">
     <path d="M 228.168 306.576 
L 362.088 306.576 
L 362.088 256.68 
L 228.168 256.68 
z
" style="fill: #0979b0; fill-opacity: 0.5; stroke: #ffffff; stroke-linejoin: miter"/>
    </g>
    <g id="text_16">
     <!-- 0.354 -->
     <g transform="translate(273.326539 286.857717) scale(0.21 -0.21)">
      <use xlink:href="#CMR17-30" transform="scale(0.996264)"/>
      <use xlink:href="#CMR17-2e" transform="translate(45.690477 0) scale(0.996264)"/>
      <use xlink:href="#CMR17-33" transform="translate(70.561536 0) scale(0.996264)"/>
      <use xlink:href="#CMR17-35" transform="translate(116.252013 0) scale(0.996264)"/>
      <use xlink:href="#CMR17-34" transform="translate(161.94249 0) scale(0.996264)"/>
     </g>
    </g>
    <g id="patch_18">
     <path d="M 228.168 356.472 
L 362.088 356.472 
L 362.088 306.576 
L 228.168 306.576 
z
" style="fill: #3b38ff; fill-opacity: 0.5; stroke: #ffffff; stroke-linejoin: miter"/>
    </g>
    <g id="text_17">
     <!-- 0.354 -->
     <g transform="translate(273.326539 336.753717) scale(0.21 -0.21)">
      <use xlink:href="#CMR17-30" transform="scale(0.996264)"/>
      <use xlink:href="#CMR17-2e" transform="translate(45.690477 0) scale(0.996264)"/>
      <use xlink:href="#CMR17-33" transform="translate(70.561536 0) scale(0.996264)"/>
      <use xlink:href="#CMR17-35" transform="translate(116.252013 0) scale(0.996264)"/>
      <use xlink:href="#CMR17-34" transform="translate(161.94249 0) scale(0.996264)"/>
     </g>
    </g>
    <g id="patch_19">
     <path d="M 228.168 406.368 
L 362.088 406.368 
L 362.088 356.472 
L 228.168 356.472 
z
" style="fill: #ff8a14; fill-opacity: 0.5; stroke: #ffffff; stroke-linejoin: miter"/>
    </g>
    <g id="text_18">
     <!-- 0.210 -->
     <g transform="translate(273.326539 386.649717) scale(0.21 -0.21)">
      <use xlink:href="#CMR17-30" transform="scale(0.996264)"/>
      <use xlink:href="#CMR17-2e" transform="translate(45.690477 0) scale(0.996264)"/>
      <use xlink:href="#CMR17-32" transform="translate(70.561536 0) scale(0.996264)"/>
      <use xlink:href="#CMR17-31" transform="translate(116.252013 0) scale(0.996264)"/>
      <use xlink:href="#CMR17-30" transform="translate(161.94249 0) scale(0.996264)"/>
     </g>
    </g>
    <g id="patch_20">
     <path d="M 228.168 456.264 
L 362.088 456.264 
L 362.088 406.368 
L 228.168 406.368 
z
" style="fill: #fa8072; fill-opacity: 0.5; stroke: #ffffff; stroke-linejoin: miter"/>
    </g>
    <g id="text_19">
     <!-- 0.210 -->
     <g transform="translate(273.326539 436.545717) scale(0.21 -0.21)">
      <use xlink:href="#CMR17-30" transform="scale(0.996264)"/>
      <use xlink:href="#CMR17-2e" transform="translate(45.690477 0) scale(0.996264)"/>
      <use xlink:href="#CMR17-32" transform="translate(70.561536 0) scale(0.996264)"/>
      <use xlink:href="#CMR17-31" transform="translate(116.252013 0) scale(0.996264)"/>
      <use xlink:href="#CMR17-30" transform="translate(161.94249 0) scale(0.996264)"/>
     </g>
    </g>
    <g id="patch_21">
     <path d="M 228.168 506.16 
L 362.088 506.16 
L 362.088 456.264 
L 228.168 456.264 
z
" style="fill: #f30000; fill-opacity: 0.5; stroke: #ffffff; stroke-linejoin: miter"/>
    </g>
    <g id="text_20">
     <!-- 0.210 -->
     <g transform="translate(273.326539 486.441717) scale(0.21 -0.21)">
      <use xlink:href="#CMR17-30" transform="scale(0.996264)"/>
      <use xlink:href="#CMR17-2e" transform="translate(45.690477 0) scale(0.996264)"/>
      <use xlink:href="#CMR17-32" transform="translate(70.561536 0) scale(0.996264)"/>
      <use xlink:href="#CMR17-31" transform="translate(116.252013 0) scale(0.996264)"/>
      <use xlink:href="#CMR17-30" transform="translate(161.94249 0) scale(0.996264)"/>
     </g>
    </g>
   </g>
   <g id="table_3">
    <g id="patch_22">
     <path d="M 429.048 57.096 
L 562.968 57.096 
L 562.968 7.2 
L 429.048 7.2 
z
" style="fill: #ffffff; stroke: #ffffff; stroke-linejoin: miter"/>
    </g>
    <g id="text_21">
     <!-- $\textit{f}_3$ (\%) -->
     <g transform="translate(470.392252 37.377725) scale(0.21 -0.21)">
      <use xlink:href="#CMTI12-66" transform="scale(0.996264)"/>
      <use xlink:href="#CMR17-33" transform="translate(29.888224 -22.858631) scale(0.697382)"/>
      <use xlink:href="#CMR17-28" transform="translate(92.445505 0) scale(0.996264)"/>
      <use xlink:href="#CMR17-25" transform="translate(127.726272 0) scale(0.996264)"/>
      <use xlink:href="#CMR17-29" transform="translate(204.645862 0) scale(0.996264)"/>
     </g>
    </g>
    <g id="patch_23">
     <path d="M 429.048 106.992 
L 562.968 106.992 
L 562.968 57.096 
L 429.048 57.096 
z
" style="fill: #6b8e23; fill-opacity: 0.5; stroke: #ffffff; stroke-linejoin: miter"/>
    </g>
    <g id="text_22">
     <!-- -0.031 -->
     <g transform="translate(471.048566 87.273717) scale(0.21 -0.21)">
      <defs>
       <path id="CMR17-2d" d="M 1632 1216 
L 1632 1496 
L 26 1496 
L 26 1216 
L 1632 1216 
z
" transform="scale(0.015625)"/>
      </defs>
      <use xlink:href="#CMR17-2d" transform="scale(0.996264)"/>
      <use xlink:href="#CMR17-30" transform="translate(30.075966 0) scale(0.996264)"/>
      <use xlink:href="#CMR17-2e" transform="translate(75.766443 0) scale(0.996264)"/>
      <use xlink:href="#CMR17-30" transform="translate(100.637502 0) scale(0.996264)"/>
      <use xlink:href="#CMR17-33" transform="translate(146.327979 0) scale(0.996264)"/>
      <use xlink:href="#CMR17-31" transform="translate(192.018456 0) scale(0.996264)"/>
     </g>
    </g>
    <g id="patch_24">
     <path d="M 429.048 156.888 
L 562.968 156.888 
L 562.968 106.992 
L 429.048 106.992 
z
" style="fill: #abf561; fill-opacity: 0.5; stroke: #ffffff; stroke-linejoin: miter"/>
    </g>
    <g id="text_23">
     <!-- -0.032 -->
     <g transform="translate(471.048566 137.169717) scale(0.21 -0.21)">
      <use xlink:href="#CMR17-2d" transform="scale(0.996264)"/>
      <use xlink:href="#CMR17-30" transform="translate(30.075966 0) scale(0.996264)"/>
      <use xlink:href="#CMR17-2e" transform="translate(75.766443 0) scale(0.996264)"/>
      <use xlink:href="#CMR17-30" transform="translate(100.637502 0) scale(0.996264)"/>
      <use xlink:href="#CMR17-33" transform="translate(146.327979 0) scale(0.996264)"/>
      <use xlink:href="#CMR17-32" transform="translate(192.018456 0) scale(0.996264)"/>
     </g>
    </g>
    <g id="patch_25">
     <path d="M 429.048 206.784 
L 562.968 206.784 
L 562.968 156.888 
L 429.048 156.888 
z
" style="fill: #2af04b; fill-opacity: 0.5; stroke: #ffffff; stroke-linejoin: miter"/>
    </g>
    <g id="text_24">
     <!-- -0.032 -->
     <g transform="translate(471.048566 187.065717) scale(0.21 -0.21)">
      <use xlink:href="#CMR17-2d" transform="scale(0.996264)"/>
      <use xlink:href="#CMR17-30" transform="translate(30.075966 0) scale(0.996264)"/>
      <use xlink:href="#CMR17-2e" transform="translate(75.766443 0) scale(0.996264)"/>
      <use xlink:href="#CMR17-30" transform="translate(100.637502 0) scale(0.996264)"/>
      <use xlink:href="#CMR17-33" transform="translate(146.327979 0) scale(0.996264)"/>
      <use xlink:href="#CMR17-32" transform="translate(192.018456 0) scale(0.996264)"/>
     </g>
    </g>
    <g id="patch_26">
     <path d="M 429.048 256.68 
L 562.968 256.68 
L 562.968 206.784 
L 429.048 206.784 
z
" style="fill: #40cfff; fill-opacity: 0.5; stroke: #ffffff; stroke-linejoin: miter"/>
    </g>
    <g id="text_25">
     <!-- -0.036 -->
     <g transform="translate(471.048566 236.961717) scale(0.21 -0.21)">
      <use xlink:href="#CMR17-2d" transform="scale(0.996264)"/>
      <use xlink:href="#CMR17-30" transform="translate(30.075966 0) scale(0.996264)"/>
      <use xlink:href="#CMR17-2e" transform="translate(75.766443 0) scale(0.996264)"/>
      <use xlink:href="#CMR17-30" transform="translate(100.637502 0) scale(0.996264)"/>
      <use xlink:href="#CMR17-33" transform="translate(146.327979 0) scale(0.996264)"/>
      <use xlink:href="#CMR17-36" transform="translate(192.018456 0) scale(0.996264)"/>
     </g>
    </g>
    <g id="patch_27">
     <path d="M 429.048 306.576 
L 562.968 306.576 
L 562.968 256.68 
L 429.048 256.68 
z
" style="fill: #0979b0; fill-opacity: 0.5; stroke: #ffffff; stroke-linejoin: miter"/>
    </g>
    <g id="text_26">
     <!-- -0.037 -->
     <g transform="translate(471.048566 286.857717) scale(0.21 -0.21)">
      <use xlink:href="#CMR17-2d" transform="scale(0.996264)"/>
      <use xlink:href="#CMR17-30" transform="translate(30.075966 0) scale(0.996264)"/>
      <use xlink:href="#CMR17-2e" transform="translate(75.766443 0) scale(0.996264)"/>
      <use xlink:href="#CMR17-30" transform="translate(100.637502 0) scale(0.996264)"/>
      <use xlink:href="#CMR17-33" transform="translate(146.327979 0) scale(0.996264)"/>
      <use xlink:href="#CMR17-37" transform="translate(192.018456 0) scale(0.996264)"/>
     </g>
    </g>
    <g id="patch_28">
     <path d="M 429.048 356.472 
L 562.968 356.472 
L 562.968 306.576 
L 429.048 306.576 
z
" style="fill: #3b38ff; fill-opacity: 0.5; stroke: #ffffff; stroke-linejoin: miter"/>
    </g>
    <g id="text_27">
     <!-- -0.037 -->
     <g transform="translate(471.048566 336.753717) scale(0.21 -0.21)">
      <use xlink:href="#CMR17-2d" transform="scale(0.996264)"/>
      <use xlink:href="#CMR17-30" transform="translate(30.075966 0) scale(0.996264)"/>
      <use xlink:href="#CMR17-2e" transform="translate(75.766443 0) scale(0.996264)"/>
      <use xlink:href="#CMR17-30" transform="translate(100.637502 0) scale(0.996264)"/>
      <use xlink:href="#CMR17-33" transform="translate(146.327979 0) scale(0.996264)"/>
      <use xlink:href="#CMR17-37" transform="translate(192.018456 0) scale(0.996264)"/>
     </g>
    </g>
    <g id="patch_29">
     <path d="M 429.048 406.368 
L 562.968 406.368 
L 562.968 356.472 
L 429.048 356.472 
z
" style="fill: #ff8a14; fill-opacity: 0.5; stroke: #ffffff; stroke-linejoin: miter"/>
    </g>
    <g id="text_28">
     <!-- -0.038 -->
     <g transform="translate(471.048566 386.649717) scale(0.21 -0.21)">
      <use xlink:href="#CMR17-2d" transform="scale(0.996264)"/>
      <use xlink:href="#CMR17-30" transform="translate(30.075966 0) scale(0.996264)"/>
      <use xlink:href="#CMR17-2e" transform="translate(75.766443 0) scale(0.996264)"/>
      <use xlink:href="#CMR17-30" transform="translate(100.637502 0) scale(0.996264)"/>
      <use xlink:href="#CMR17-33" transform="translate(146.327979 0) scale(0.996264)"/>
      <use xlink:href="#CMR17-38" transform="translate(192.018456 0) scale(0.996264)"/>
     </g>
    </g>
    <g id="patch_30">
     <path d="M 429.048 456.264 
L 562.968 456.264 
L 562.968 406.368 
L 429.048 406.368 
z
" style="fill: #fa8072; fill-opacity: 0.5; stroke: #ffffff; stroke-linejoin: miter"/>
    </g>
    <g id="text_29">
     <!-- -0.038 -->
     <g transform="translate(471.048566 436.545717) scale(0.21 -0.21)">
      <use xlink:href="#CMR17-2d" transform="scale(0.996264)"/>
      <use xlink:href="#CMR17-30" transform="translate(30.075966 0) scale(0.996264)"/>
      <use xlink:href="#CMR17-2e" transform="translate(75.766443 0) scale(0.996264)"/>
      <use xlink:href="#CMR17-30" transform="translate(100.637502 0) scale(0.996264)"/>
      <use xlink:href="#CMR17-33" transform="translate(146.327979 0) scale(0.996264)"/>
      <use xlink:href="#CMR17-38" transform="translate(192.018456 0) scale(0.996264)"/>
     </g>
    </g>
    <g id="patch_31">
     <path d="M 429.048 506.16 
L 562.968 506.16 
L 562.968 456.264 
L 429.048 456.264 
z
" style="fill: #f30000; fill-opacity: 0.5; stroke: #ffffff; stroke-linejoin: miter"/>
    </g>
    <g id="text_30">
     <!-- -0.038 -->
     <g transform="translate(471.048566 486.441717) scale(0.21 -0.21)">
      <use xlink:href="#CMR17-2d" transform="scale(0.996264)"/>
      <use xlink:href="#CMR17-30" transform="translate(30.075966 0) scale(0.996264)"/>
      <use xlink:href="#CMR17-2e" transform="translate(75.766443 0) scale(0.996264)"/>
      <use xlink:href="#CMR17-30" transform="translate(100.637502 0) scale(0.996264)"/>
      <use xlink:href="#CMR17-33" transform="translate(146.327979 0) scale(0.996264)"/>
      <use xlink:href="#CMR17-38" transform="translate(192.018456 0) scale(0.996264)"/>
     </g>
    </g>
   </g>
   <g id="table_4">
    <g id="patch_32">
     <path d="M 629.928 57.096 
L 763.848 57.096 
L 763.848 7.2 
L 629.928 7.2 
z
" style="fill: #ffffff; stroke: #ffffff; stroke-linejoin: miter"/>
    </g>
    <g id="text_31">
     <!-- $\textit{f}_4$ (\%) -->
     <g transform="translate(671.272252 37.377725) scale(0.21 -0.21)">
      <use xlink:href="#CMTI12-66" transform="scale(0.996264)"/>
      <use xlink:href="#CMR17-34" transform="translate(29.888224 -22.858631) scale(0.697382)"/>
      <use xlink:href="#CMR17-28" transform="translate(92.445505 0) scale(0.996264)"/>
      <use xlink:href="#CMR17-25" transform="translate(127.726272 0) scale(0.996264)"/>
      <use xlink:href="#CMR17-29" transform="translate(204.645862 0) scale(0.996264)"/>
     </g>
    </g>
    <g id="patch_33">
     <path d="M 629.928 106.992 
L 763.848 106.992 
L 763.848 57.096 
L 629.928 57.096 
z
" style="fill: #ff8a14; fill-opacity: 0.5; stroke: #ffffff; stroke-linejoin: miter"/>
    </g>
    <g id="text_32">
     <!-- 1.031 -->
     <g transform="translate(675.086539 87.273717) scale(0.21 -0.21)">
      <use xlink:href="#CMR17-31" transform="scale(0.996264)"/>
      <use xlink:href="#CMR17-2e" transform="translate(45.690477 0) scale(0.996264)"/>
      <use xlink:href="#CMR17-30" transform="translate(70.561536 0) scale(0.996264)"/>
      <use xlink:href="#CMR17-33" transform="translate(116.252013 0) scale(0.996264)"/>
      <use xlink:href="#CMR17-31" transform="translate(161.94249 0) scale(0.996264)"/>
     </g>
    </g>
    <g id="patch_34">
     <path d="M 629.928 156.888 
L 763.848 156.888 
L 763.848 106.992 
L 629.928 106.992 
z
" style="fill: #fa8072; fill-opacity: 0.5; stroke: #ffffff; stroke-linejoin: miter"/>
    </g>
    <g id="text_33">
     <!-- 1.030 -->
     <g transform="translate(675.086539 137.169717) scale(0.21 -0.21)">
      <use xlink:href="#CMR17-31" transform="scale(0.996264)"/>
      <use xlink:href="#CMR17-2e" transform="translate(45.690477 0) scale(0.996264)"/>
      <use xlink:href="#CMR17-30" transform="translate(70.561536 0) scale(0.996264)"/>
      <use xlink:href="#CMR17-33" transform="translate(116.252013 0) scale(0.996264)"/>
      <use xlink:href="#CMR17-30" transform="translate(161.94249 0) scale(0.996264)"/>
     </g>
    </g>
    <g id="patch_35">
     <path d="M 629.928 206.784 
L 763.848 206.784 
L 763.848 156.888 
L 629.928 156.888 
z
" style="fill: #f30000; fill-opacity: 0.5; stroke: #ffffff; stroke-linejoin: miter"/>
    </g>
    <g id="text_34">
     <!-- 1.030 -->
     <g transform="translate(675.086539 187.065717) scale(0.21 -0.21)">
      <use xlink:href="#CMR17-31" transform="scale(0.996264)"/>
      <use xlink:href="#CMR17-2e" transform="translate(45.690477 0) scale(0.996264)"/>
      <use xlink:href="#CMR17-30" transform="translate(70.561536 0) scale(0.996264)"/>
      <use xlink:href="#CMR17-33" transform="translate(116.252013 0) scale(0.996264)"/>
      <use xlink:href="#CMR17-30" transform="translate(161.94249 0) scale(0.996264)"/>
     </g>
    </g>
    <g id="patch_36">
     <path d="M 629.928 256.68 
L 763.848 256.68 
L 763.848 206.784 
L 629.928 206.784 
z
" style="fill: #40cfff; fill-opacity: 0.5; stroke: #ffffff; stroke-linejoin: miter"/>
    </g>
    <g id="text_35">
     <!-- 1.012 -->
     <g transform="translate(675.086539 236.961717) scale(0.21 -0.21)">
      <use xlink:href="#CMR17-31" transform="scale(0.996264)"/>
      <use xlink:href="#CMR17-2e" transform="translate(45.690477 0) scale(0.996264)"/>
      <use xlink:href="#CMR17-30" transform="translate(70.561536 0) scale(0.996264)"/>
      <use xlink:href="#CMR17-31" transform="translate(116.252013 0) scale(0.996264)"/>
      <use xlink:href="#CMR17-32" transform="translate(161.94249 0) scale(0.996264)"/>
     </g>
    </g>
    <g id="patch_37">
     <path d="M 629.928 306.576 
L 763.848 306.576 
L 763.848 256.68 
L 629.928 256.68 
z
" style="fill: #0979b0; fill-opacity: 0.5; stroke: #ffffff; stroke-linejoin: miter"/>
    </g>
    <g id="text_36">
     <!-- 1.011 -->
     <g transform="translate(675.086539 286.857717) scale(0.21 -0.21)">
      <use xlink:href="#CMR17-31" transform="scale(0.996264)"/>
      <use xlink:href="#CMR17-2e" transform="translate(45.690477 0) scale(0.996264)"/>
      <use xlink:href="#CMR17-30" transform="translate(70.561536 0) scale(0.996264)"/>
      <use xlink:href="#CMR17-31" transform="translate(116.252013 0) scale(0.996264)"/>
      <use xlink:href="#CMR17-31" transform="translate(161.94249 0) scale(0.996264)"/>
     </g>
    </g>
    <g id="patch_38">
     <path d="M 629.928 356.472 
L 763.848 356.472 
L 763.848 306.576 
L 629.928 306.576 
z
" style="fill: #3b38ff; fill-opacity: 0.5; stroke: #ffffff; stroke-linejoin: miter"/>
    </g>
    <g id="text_37">
     <!-- 1.011 -->
     <g transform="translate(675.086539 336.753717) scale(0.21 -0.21)">
      <use xlink:href="#CMR17-31" transform="scale(0.996264)"/>
      <use xlink:href="#CMR17-2e" transform="translate(45.690477 0) scale(0.996264)"/>
      <use xlink:href="#CMR17-30" transform="translate(70.561536 0) scale(0.996264)"/>
      <use xlink:href="#CMR17-31" transform="translate(116.252013 0) scale(0.996264)"/>
      <use xlink:href="#CMR17-31" transform="translate(161.94249 0) scale(0.996264)"/>
     </g>
    </g>
    <g id="patch_39">
     <path d="M 629.928 406.368 
L 763.848 406.368 
L 763.848 356.472 
L 629.928 356.472 
z
" style="fill: #abf561; fill-opacity: 0.5; stroke: #ffffff; stroke-linejoin: miter"/>
    </g>
    <g id="text_38">
     <!-- 0.932 -->
     <g transform="translate(675.086539 386.649717) scale(0.21 -0.21)">
      <use xlink:href="#CMR17-30" transform="scale(0.996264)"/>
      <use xlink:href="#CMR17-2e" transform="translate(45.690477 0) scale(0.996264)"/>
      <use xlink:href="#CMR17-39" transform="translate(70.561536 0) scale(0.996264)"/>
      <use xlink:href="#CMR17-33" transform="translate(116.252013 0) scale(0.996264)"/>
      <use xlink:href="#CMR17-32" transform="translate(161.94249 0) scale(0.996264)"/>
     </g>
    </g>
    <g id="patch_40">
     <path d="M 629.928 456.264 
L 763.848 456.264 
L 763.848 406.368 
L 629.928 406.368 
z
" style="fill: #6b8e23; fill-opacity: 0.5; stroke: #ffffff; stroke-linejoin: miter"/>
    </g>
    <g id="text_39">
     <!-- 0.929 -->
     <g transform="translate(675.086539 436.545717) scale(0.21 -0.21)">
      <use xlink:href="#CMR17-30" transform="scale(0.996264)"/>
      <use xlink:href="#CMR17-2e" transform="translate(45.690477 0) scale(0.996264)"/>
      <use xlink:href="#CMR17-39" transform="translate(70.561536 0) scale(0.996264)"/>
      <use xlink:href="#CMR17-32" transform="translate(116.252013 0) scale(0.996264)"/>
      <use xlink:href="#CMR17-39" transform="translate(161.94249 0) scale(0.996264)"/>
     </g>
    </g>
    <g id="patch_41">
     <path d="M 629.928 506.16 
L 763.848 506.16 
L 763.848 456.264 
L 629.928 456.264 
z
" style="fill: #2af04b; fill-opacity: 0.5; stroke: #ffffff; stroke-linejoin: miter"/>
    </g>
    <g id="text_40">
     <!-- 0.928 -->
     <g transform="translate(675.086539 486.441717) scale(0.21 -0.21)">
      <use xlink:href="#CMR17-30" transform="scale(0.996264)"/>
      <use xlink:href="#CMR17-2e" transform="translate(45.690477 0) scale(0.996264)"/>
      <use xlink:href="#CMR17-39" transform="translate(70.561536 0) scale(0.996264)"/>
      <use xlink:href="#CMR17-32" transform="translate(116.252013 0) scale(0.996264)"/>
      <use xlink:href="#CMR17-38" transform="translate(161.94249 0) scale(0.996264)"/>
     </g>
    </g>
   </g>
   <g id="table_5">
    <g id="patch_42">
     <path d="M 830.808 57.096 
L 964.728 57.096 
L 964.728 7.2 
L 830.808 7.2 
z
" style="fill: #ffffff; stroke: #ffffff; stroke-linejoin: miter"/>
    </g>
    <g id="text_41">
     <!-- $\textit{f}_5$ (\%) -->
     <g transform="translate(872.152252 37.377725) scale(0.21 -0.21)">
      <use xlink:href="#CMTI12-66" transform="scale(0.996264)"/>
      <use xlink:href="#CMR17-35" transform="translate(29.888224 -22.858631) scale(0.697382)"/>
      <use xlink:href="#CMR17-28" transform="translate(92.445505 0) scale(0.996264)"/>
      <use xlink:href="#CMR17-25" transform="translate(127.726272 0) scale(0.996264)"/>
      <use xlink:href="#CMR17-29" transform="translate(204.645862 0) scale(0.996264)"/>
     </g>
    </g>
    <g id="patch_43">
     <path d="M 830.808 106.992 
L 964.728 106.992 
L 964.728 57.096 
L 830.808 57.096 
z
" style="fill: #2af04b; fill-opacity: 0.5; stroke: #ffffff; stroke-linejoin: miter"/>
    </g>
    <g id="text_42">
     <!-- 14.24 -->
     <g transform="translate(875.966539 87.273717) scale(0.21 -0.21)">
      <use xlink:href="#CMR17-31" transform="scale(0.996264)"/>
      <use xlink:href="#CMR17-34" transform="translate(45.690477 0) scale(0.996264)"/>
      <use xlink:href="#CMR17-2e" transform="translate(91.380954 0) scale(0.996264)"/>
      <use xlink:href="#CMR17-32" transform="translate(116.252013 0) scale(0.996264)"/>
      <use xlink:href="#CMR17-34" transform="translate(161.94249 0) scale(0.996264)"/>
     </g>
    </g>
    <g id="patch_44">
     <path d="M 830.808 156.888 
L 964.728 156.888 
L 964.728 106.992 
L 830.808 106.992 
z
" style="fill: #abf561; fill-opacity: 0.5; stroke: #ffffff; stroke-linejoin: miter"/>
    </g>
    <g id="text_43">
     <!-- 14.20 -->
     <g transform="translate(875.966539 137.169717) scale(0.21 -0.21)">
      <use xlink:href="#CMR17-31" transform="scale(0.996264)"/>
      <use xlink:href="#CMR17-34" transform="translate(45.690477 0) scale(0.996264)"/>
      <use xlink:href="#CMR17-2e" transform="translate(91.380954 0) scale(0.996264)"/>
      <use xlink:href="#CMR17-32" transform="translate(116.252013 0) scale(0.996264)"/>
      <use xlink:href="#CMR17-30" transform="translate(161.94249 0) scale(0.996264)"/>
     </g>
    </g>
    <g id="patch_45">
     <path d="M 830.808 206.784 
L 964.728 206.784 
L 964.728 156.888 
L 830.808 156.888 
z
" style="fill: #6b8e23; fill-opacity: 0.5; stroke: #ffffff; stroke-linejoin: miter"/>
    </g>
    <g id="text_44">
     <!-- 14.20 -->
     <g transform="translate(875.966539 187.065717) scale(0.21 -0.21)">
      <use xlink:href="#CMR17-31" transform="scale(0.996264)"/>
      <use xlink:href="#CMR17-34" transform="translate(45.690477 0) scale(0.996264)"/>
      <use xlink:href="#CMR17-2e" transform="translate(91.380954 0) scale(0.996264)"/>
      <use xlink:href="#CMR17-32" transform="translate(116.252013 0) scale(0.996264)"/>
      <use xlink:href="#CMR17-30" transform="translate(161.94249 0) scale(0.996264)"/>
     </g>
    </g>
    <g id="patch_46">
     <path d="M 830.808 256.68 
L 964.728 256.68 
L 964.728 206.784 
L 830.808 206.784 
z
" style="fill: #0979b0; fill-opacity: 0.5; stroke: #ffffff; stroke-linejoin: miter"/>
    </g>
    <g id="text_45">
     <!-- 11.18 -->
     <g transform="translate(875.966539 236.961717) scale(0.21 -0.21)">
      <use xlink:href="#CMR17-31" transform="scale(0.996264)"/>
      <use xlink:href="#CMR17-31" transform="translate(45.690477 0) scale(0.996264)"/>
      <use xlink:href="#CMR17-2e" transform="translate(91.380954 0) scale(0.996264)"/>
      <use xlink:href="#CMR17-31" transform="translate(116.252013 0) scale(0.996264)"/>
      <use xlink:href="#CMR17-38" transform="translate(161.94249 0) scale(0.996264)"/>
     </g>
    </g>
    <g id="patch_47">
     <path d="M 830.808 306.576 
L 964.728 306.576 
L 964.728 256.68 
L 830.808 256.68 
z
" style="fill: #3b38ff; fill-opacity: 0.5; stroke: #ffffff; stroke-linejoin: miter"/>
    </g>
    <g id="text_46">
     <!-- 11.16 -->
     <g transform="translate(875.966539 286.857717) scale(0.21 -0.21)">
      <use xlink:href="#CMR17-31" transform="scale(0.996264)"/>
      <use xlink:href="#CMR17-31" transform="translate(45.690477 0) scale(0.996264)"/>
      <use xlink:href="#CMR17-2e" transform="translate(91.380954 0) scale(0.996264)"/>
      <use xlink:href="#CMR17-31" transform="translate(116.252013 0) scale(0.996264)"/>
      <use xlink:href="#CMR17-36" transform="translate(161.94249 0) scale(0.996264)"/>
     </g>
    </g>
    <g id="patch_48">
     <path d="M 830.808 356.472 
L 964.728 356.472 
L 964.728 306.576 
L 830.808 306.576 
z
" style="fill: #40cfff; fill-opacity: 0.5; stroke: #ffffff; stroke-linejoin: miter"/>
    </g>
    <g id="text_47">
     <!-- 11.13 -->
     <g transform="translate(875.966539 336.753717) scale(0.21 -0.21)">
      <use xlink:href="#CMR17-31" transform="scale(0.996264)"/>
      <use xlink:href="#CMR17-31" transform="translate(45.690477 0) scale(0.996264)"/>
      <use xlink:href="#CMR17-2e" transform="translate(91.380954 0) scale(0.996264)"/>
      <use xlink:href="#CMR17-31" transform="translate(116.252013 0) scale(0.996264)"/>
      <use xlink:href="#CMR17-33" transform="translate(161.94249 0) scale(0.996264)"/>
     </g>
    </g>
    <g id="patch_49">
     <path d="M 830.808 406.368 
L 964.728 406.368 
L 964.728 356.472 
L 830.808 356.472 
z
" style="fill: #f30000; fill-opacity: 0.5; stroke: #ffffff; stroke-linejoin: miter"/>
    </g>
    <g id="text_48">
     <!-- 10.34 -->
     <g transform="translate(875.966539 386.649717) scale(0.21 -0.21)">
      <use xlink:href="#CMR17-31" transform="scale(0.996264)"/>
      <use xlink:href="#CMR17-30" transform="translate(45.690477 0) scale(0.996264)"/>
      <use xlink:href="#CMR17-2e" transform="translate(91.380954 0) scale(0.996264)"/>
      <use xlink:href="#CMR17-33" transform="translate(116.252013 0) scale(0.996264)"/>
      <use xlink:href="#CMR17-34" transform="translate(161.94249 0) scale(0.996264)"/>
     </g>
    </g>
    <g id="patch_50">
     <path d="M 830.808 456.264 
L 964.728 456.264 
L 964.728 406.368 
L 830.808 406.368 
z
" style="fill: #ff8a14; fill-opacity: 0.5; stroke: #ffffff; stroke-linejoin: miter"/>
    </g>
    <g id="text_49">
     <!-- 10.33 -->
     <g transform="translate(875.966539 436.545717) scale(0.21 -0.21)">
      <use xlink:href="#CMR17-31" transform="scale(0.996264)"/>
      <use xlink:href="#CMR17-30" transform="translate(45.690477 0) scale(0.996264)"/>
      <use xlink:href="#CMR17-2e" transform="translate(91.380954 0) scale(0.996264)"/>
      <use xlink:href="#CMR17-33" transform="translate(116.252013 0) scale(0.996264)"/>
      <use xlink:href="#CMR17-33" transform="translate(161.94249 0) scale(0.996264)"/>
     </g>
    </g>
    <g id="patch_51">
     <path d="M 830.808 506.16 
L 964.728 506.16 
L 964.728 456.264 
L 830.808 456.264 
z
" style="fill: #fa8072; fill-opacity: 0.5; stroke: #ffffff; stroke-linejoin: miter"/>
    </g>
    <g id="text_50">
     <!-- 10.33 -->
     <g transform="translate(875.966539 486.441717) scale(0.21 -0.21)">
      <use xlink:href="#CMR17-31" transform="scale(0.996264)"/>
      <use xlink:href="#CMR17-30" transform="translate(45.690477 0) scale(0.996264)"/>
      <use xlink:href="#CMR17-2e" transform="translate(91.380954 0) scale(0.996264)"/>
      <use xlink:href="#CMR17-33" transform="translate(116.252013 0) scale(0.996264)"/>
      <use xlink:href="#CMR17-33" transform="translate(161.94249 0) scale(0.996264)"/>
     </g>
    </g>
   </g>
   <g id="legend_1">
    <g id="patch_52">
     <path d="M 150.662235 624.858221 
L 834.657765 624.858221 
Q 838.857765 624.858221 838.857765 620.658221 
L 838.857765 525.8496 
Q 838.857765 521.6496 834.657765 521.6496 
L 150.662235 521.6496 
Q 146.462235 521.6496 146.462235 525.8496 
L 146.462235 620.658221 
Q 146.462235 624.858221 150.662235 624.858221 
z
" style="fill: #ffffff; opacity: 0.8; stroke: #cccccc; stroke-linejoin: miter"/>
    </g>
    <g id="line2d_1">
     <path d="M 154.862235 538.3446 
L 160.112235 538.3446 
L 165.362235 538.3446 
" style="fill: none; stroke: #abf561; stroke-opacity: 0.5; stroke-width: 8; stroke-linecap: square"/>
    </g>
    <g id="text_51">
     <!-- 1000 kWh/250 kW -->
     <g transform="translate(182.162235 546.6396) scale(0.21 -0.21)">
      <defs>
       <path id="CMR17-57" d="M 5523 3764 
C 5581 3936 5677 4160 6048 4160 
L 6048 4326 
C 5939 4326 5715 4326 5600 4326 
C 5440 4326 5158 4326 5005 4332 
L 5005 4160 
C 5293 4160 5414 4000 5414 3847 
C 5414 3802 5408 3777 5382 3707 
L 4390 555 
L 3347 3873 
C 3328 3937 3322 3963 3322 3988 
C 3322 4160 3603 4160 3725 4160 
L 3725 4326 
C 3539 4326 3219 4326 3021 4326 
C 2861 4326 2573 4326 2426 4332 
L 2426 4160 
C 2720 4160 2797 4141 2861 4027 
C 2886 3969 2989 3638 2989 3619 
C 2989 3593 2976 3555 2970 3536 
L 2029 561 
L 986 3867 
C 954 3957 954 3969 954 3982 
C 954 4160 1235 4160 1363 4160 
L 1363 4326 
C 1178 4326 858 4326 659 4326 
C 493 4326 211 4326 58 4332 
L 58 4160 
C 442 4160 467 4122 531 3918 
L 1779 -20 
C 1811 -115 1811 -128 1869 -128 
C 1920 -128 1939 -115 1965 -26 
L 3053 3433 
L 4141 -26 
C 4166 -115 4186 -128 4237 -128 
C 4294 -128 4294 -115 4326 -20 
L 5523 3764 
z
" transform="scale(0.015625)"/>
       <path id="CMR17-68" d="M 2656 1933 
C 2656 2259 2592 2790 1837 2790 
C 1312 2790 1056 2368 979 2157 
L 973 2157 
L 973 4396 
L 211 4326 
L 211 4160 
C 589 4160 646 4122 646 3817 
L 646 426 
C 646 184 621 153 211 153 
L 211 -13 
C 365 0 646 0 813 0 
C 979 0 1267 0 1421 -13 
L 1421 153 
C 1011 153 986 178 986 428 
L 986 1658 
C 986 2247 1344 2688 1792 2688 
C 2266 2688 2317 2266 2317 1958 
L 2317 428 
C 2317 184 2291 153 1882 153 
L 1882 -13 
C 2035 0 2317 0 2483 0 
C 2650 0 2938 0 3091 -13 
L 3091 153 
C 2682 153 2656 178 2656 428 
L 2656 1933 
z
" transform="scale(0.015625)"/>
       <path id="CMR17-2f" d="M 2605 4545 
C 2637 4627 2637 4640 2637 4653 
C 2637 4729 2579 4768 2528 4768 
C 2451 4768 2426 4717 2400 4640 
L 326 -1377 
C 294 -1460 294 -1473 294 -1486 
C 294 -1562 352 -1600 403 -1600 
C 480 -1600 506 -1549 531 -1473 
L 2605 4545 
z
" transform="scale(0.015625)"/>
      </defs>
      <use xlink:href="#CMR17-31" transform="scale(0.996264)"/>
      <use xlink:href="#CMR17-30" transform="translate(45.690477 0) scale(0.996264)"/>
      <use xlink:href="#CMR17-30" transform="translate(91.380954 0) scale(0.996264)"/>
      <use xlink:href="#CMR17-30" transform="translate(137.071431 0) scale(0.996264)"/>
      <use xlink:href="#CMR17-6b" transform="translate(212.837875 0) scale(0.996264)"/>
      <use xlink:href="#CMR17-57" transform="translate(261.130791 0) scale(0.996264)"/>
      <use xlink:href="#CMR17-68" transform="translate(356.227441 0) scale(0.996264)"/>
      <use xlink:href="#CMR17-2f" transform="translate(407.12281 0) scale(0.996264)"/>
      <use xlink:href="#CMR17-32" transform="translate(452.813287 0) scale(0.996264)"/>
      <use xlink:href="#CMR17-35" transform="translate(498.503765 0) scale(0.996264)"/>
      <use xlink:href="#CMR17-30" transform="translate(544.194242 0) scale(0.996264)"/>
      <use xlink:href="#CMR17-6b" transform="translate(619.960685 0) scale(0.996264)"/>
      <use xlink:href="#CMR17-57" transform="translate(668.253601 0) scale(0.996264)"/>
     </g>
    </g>
    <g id="line2d_2">
     <path d="M 154.862235 570.647474 
L 160.112235 570.647474 
L 165.362235 570.647474 
" style="fill: none; stroke: #6b8e23; stroke-opacity: 0.5; stroke-width: 8; stroke-linecap: square"/>
    </g>
    <g id="text_52">
     <!-- 1000 kWh/500 kW -->
     <g transform="translate(182.162235 578.942474) scale(0.21 -0.21)">
      <use xlink:href="#CMR17-31" transform="scale(0.996264)"/>
      <use xlink:href="#CMR17-30" transform="translate(45.690477 0) scale(0.996264)"/>
      <use xlink:href="#CMR17-30" transform="translate(91.380954 0) scale(0.996264)"/>
      <use xlink:href="#CMR17-30" transform="translate(137.071431 0) scale(0.996264)"/>
      <use xlink:href="#CMR17-6b" transform="translate(212.837875 0) scale(0.996264)"/>
      <use xlink:href="#CMR17-57" transform="translate(261.130791 0) scale(0.996264)"/>
      <use xlink:href="#CMR17-68" transform="translate(356.227441 0) scale(0.996264)"/>
      <use xlink:href="#CMR17-2f" transform="translate(407.12281 0) scale(0.996264)"/>
      <use xlink:href="#CMR17-35" transform="translate(452.813287 0) scale(0.996264)"/>
      <use xlink:href="#CMR17-30" transform="translate(498.503765 0) scale(0.996264)"/>
      <use xlink:href="#CMR17-30" transform="translate(544.194242 0) scale(0.996264)"/>
      <use xlink:href="#CMR17-6b" transform="translate(619.960685 0) scale(0.996264)"/>
      <use xlink:href="#CMR17-57" transform="translate(668.253601 0) scale(0.996264)"/>
     </g>
    </g>
    <g id="line2d_3">
     <path d="M 154.862235 602.950347 
L 160.112235 602.950347 
L 165.362235 602.950347 
" style="fill: none; stroke: #2af04b; stroke-opacity: 0.5; stroke-width: 8; stroke-linecap: square"/>
    </g>
    <g id="text_53">
     <!-- 1000 kWh/1000 kW -->
     <g transform="translate(182.162235 611.245347) scale(0.21 -0.21)">
      <use xlink:href="#CMR17-31" transform="scale(0.996264)"/>
      <use xlink:href="#CMR17-30" transform="translate(45.690477 0) scale(0.996264)"/>
      <use xlink:href="#CMR17-30" transform="translate(91.380954 0) scale(0.996264)"/>
      <use xlink:href="#CMR17-30" transform="translate(137.071431 0) scale(0.996264)"/>
      <use xlink:href="#CMR17-6b" transform="translate(212.837875 0) scale(0.996264)"/>
      <use xlink:href="#CMR17-57" transform="translate(261.130791 0) scale(0.996264)"/>
      <use xlink:href="#CMR17-68" transform="translate(356.227441 0) scale(0.996264)"/>
      <use xlink:href="#CMR17-2f" transform="translate(407.12281 0) scale(0.996264)"/>
      <use xlink:href="#CMR17-31" transform="translate(452.813287 0) scale(0.996264)"/>
      <use xlink:href="#CMR17-30" transform="translate(498.503765 0) scale(0.996264)"/>
      <use xlink:href="#CMR17-30" transform="translate(544.194242 0) scale(0.996264)"/>
      <use xlink:href="#CMR17-30" transform="translate(589.884719 0) scale(0.996264)"/>
      <use xlink:href="#CMR17-6b" transform="translate(665.651162 0) scale(0.996264)"/>
      <use xlink:href="#CMR17-57" transform="translate(713.944078 0) scale(0.996264)"/>
     </g>
    </g>
    <g id="line2d_4">
     <path d="M 394.060745 538.3446 
L 399.310745 538.3446 
L 404.560745 538.3446 
" style="fill: none; stroke: #40cfff; stroke-opacity: 0.5; stroke-width: 8; stroke-linecap: square"/>
    </g>
    <g id="text_54">
     <!-- 2000 kWh/500 kW -->
     <g transform="translate(421.360745 546.6396) scale(0.21 -0.21)">
      <use xlink:href="#CMR17-32" transform="scale(0.996264)"/>
      <use xlink:href="#CMR17-30" transform="translate(45.690477 0) scale(0.996264)"/>
      <use xlink:href="#CMR17-30" transform="translate(91.380954 0) scale(0.996264)"/>
      <use xlink:href="#CMR17-30" transform="translate(137.071431 0) scale(0.996264)"/>
      <use xlink:href="#CMR17-6b" transform="translate(212.837875 0) scale(0.996264)"/>
      <use xlink:href="#CMR17-57" transform="translate(261.130791 0) scale(0.996264)"/>
      <use xlink:href="#CMR17-68" transform="translate(356.227441 0) scale(0.996264)"/>
      <use xlink:href="#CMR17-2f" transform="translate(407.12281 0) scale(0.996264)"/>
      <use xlink:href="#CMR17-35" transform="translate(452.813287 0) scale(0.996264)"/>
      <use xlink:href="#CMR17-30" transform="translate(498.503765 0) scale(0.996264)"/>
      <use xlink:href="#CMR17-30" transform="translate(544.194242 0) scale(0.996264)"/>
      <use xlink:href="#CMR17-6b" transform="translate(619.960685 0) scale(0.996264)"/>
      <use xlink:href="#CMR17-57" transform="translate(668.253601 0) scale(0.996264)"/>
     </g>
    </g>
    <g id="line2d_5">
     <path d="M 394.060745 570.647474 
L 399.310745 570.647474 
L 404.560745 570.647474 
" style="fill: none; stroke: #0979b0; stroke-opacity: 0.5; stroke-width: 8; stroke-linecap: square"/>
    </g>
    <g id="text_55">
     <!-- 2000 kWh/1000 kW -->
     <g transform="translate(421.360745 578.942474) scale(0.21 -0.21)">
      <use xlink:href="#CMR17-32" transform="scale(0.996264)"/>
      <use xlink:href="#CMR17-30" transform="translate(45.690477 0) scale(0.996264)"/>
      <use xlink:href="#CMR17-30" transform="translate(91.380954 0) scale(0.996264)"/>
      <use xlink:href="#CMR17-30" transform="translate(137.071431 0) scale(0.996264)"/>
      <use xlink:href="#CMR17-6b" transform="translate(212.837875 0) scale(0.996264)"/>
      <use xlink:href="#CMR17-57" transform="translate(261.130791 0) scale(0.996264)"/>
      <use xlink:href="#CMR17-68" transform="translate(356.227441 0) scale(0.996264)"/>
      <use xlink:href="#CMR17-2f" transform="translate(407.12281 0) scale(0.996264)"/>
      <use xlink:href="#CMR17-31" transform="translate(452.813287 0) scale(0.996264)"/>
      <use xlink:href="#CMR17-30" transform="translate(498.503765 0) scale(0.996264)"/>
      <use xlink:href="#CMR17-30" transform="translate(544.194242 0) scale(0.996264)"/>
      <use xlink:href="#CMR17-30" transform="translate(589.884719 0) scale(0.996264)"/>
      <use xlink:href="#CMR17-6b" transform="translate(665.651162 0) scale(0.996264)"/>
      <use xlink:href="#CMR17-57" transform="translate(713.944078 0) scale(0.996264)"/>
     </g>
    </g>
    <g id="line2d_6">
     <path d="M 394.060745 602.950347 
L 399.310745 602.950347 
L 404.560745 602.950347 
" style="fill: none; stroke: #3b38ff; stroke-opacity: 0.5; stroke-width: 8; stroke-linecap: square"/>
    </g>
    <g id="text_56">
     <!-- 2000 kWh/2000 kW -->
     <g transform="translate(421.360745 611.245347) scale(0.21 -0.21)">
      <use xlink:href="#CMR17-32" transform="scale(0.996264)"/>
      <use xlink:href="#CMR17-30" transform="translate(45.690477 0) scale(0.996264)"/>
      <use xlink:href="#CMR17-30" transform="translate(91.380954 0) scale(0.996264)"/>
      <use xlink:href="#CMR17-30" transform="translate(137.071431 0) scale(0.996264)"/>
      <use xlink:href="#CMR17-6b" transform="translate(212.837875 0) scale(0.996264)"/>
      <use xlink:href="#CMR17-57" transform="translate(261.130791 0) scale(0.996264)"/>
      <use xlink:href="#CMR17-68" transform="translate(356.227441 0) scale(0.996264)"/>
      <use xlink:href="#CMR17-2f" transform="translate(407.12281 0) scale(0.996264)"/>
      <use xlink:href="#CMR17-32" transform="translate(452.813287 0) scale(0.996264)"/>
      <use xlink:href="#CMR17-30" transform="translate(498.503765 0) scale(0.996264)"/>
      <use xlink:href="#CMR17-30" transform="translate(544.194242 0) scale(0.996264)"/>
      <use xlink:href="#CMR17-30" transform="translate(589.884719 0) scale(0.996264)"/>
      <use xlink:href="#CMR17-6b" transform="translate(665.651162 0) scale(0.996264)"/>
      <use xlink:href="#CMR17-57" transform="translate(713.944078 0) scale(0.996264)"/>
     </g>
    </g>
    <g id="line2d_7">
     <path d="M 633.259255 538.3446 
L 638.509255 538.3446 
L 643.759255 538.3446 
" style="fill: none; stroke: #ff8a14; stroke-opacity: 0.5; stroke-width: 8; stroke-linecap: square"/>
    </g>
    <g id="text_57">
     <!-- 3000 kWh/750 kW -->
     <g transform="translate(660.559255 546.6396) scale(0.21 -0.21)">
      <use xlink:href="#CMR17-33" transform="scale(0.996264)"/>
      <use xlink:href="#CMR17-30" transform="translate(45.690477 0) scale(0.996264)"/>
      <use xlink:href="#CMR17-30" transform="translate(91.380954 0) scale(0.996264)"/>
      <use xlink:href="#CMR17-30" transform="translate(137.071431 0) scale(0.996264)"/>
      <use xlink:href="#CMR17-6b" transform="translate(212.837875 0) scale(0.996264)"/>
      <use xlink:href="#CMR17-57" transform="translate(261.130791 0) scale(0.996264)"/>
      <use xlink:href="#CMR17-68" transform="translate(356.227441 0) scale(0.996264)"/>
      <use xlink:href="#CMR17-2f" transform="translate(407.12281 0) scale(0.996264)"/>
      <use xlink:href="#CMR17-37" transform="translate(452.813287 0) scale(0.996264)"/>
      <use xlink:href="#CMR17-35" transform="translate(498.503765 0) scale(0.996264)"/>
      <use xlink:href="#CMR17-30" transform="translate(544.194242 0) scale(0.996264)"/>
      <use xlink:href="#CMR17-6b" transform="translate(619.960685 0) scale(0.996264)"/>
      <use xlink:href="#CMR17-57" transform="translate(668.253601 0) scale(0.996264)"/>
     </g>
    </g>
    <g id="line2d_8">
     <path d="M 633.259255 570.647474 
L 638.509255 570.647474 
L 643.759255 570.647474 
" style="fill: none; stroke: #fa8072; stroke-opacity: 0.5; stroke-width: 8; stroke-linecap: square"/>
    </g>
    <g id="text_58">
     <!-- 3000 kWh/1500 kW -->
     <g transform="translate(660.559255 578.942474) scale(0.21 -0.21)">
      <use xlink:href="#CMR17-33" transform="scale(0.996264)"/>
      <use xlink:href="#CMR17-30" transform="translate(45.690477 0) scale(0.996264)"/>
      <use xlink:href="#CMR17-30" transform="translate(91.380954 0) scale(0.996264)"/>
      <use xlink:href="#CMR17-30" transform="translate(137.071431 0) scale(0.996264)"/>
      <use xlink:href="#CMR17-6b" transform="translate(212.837875 0) scale(0.996264)"/>
      <use xlink:href="#CMR17-57" transform="translate(261.130791 0) scale(0.996264)"/>
      <use xlink:href="#CMR17-68" transform="translate(356.227441 0) scale(0.996264)"/>
      <use xlink:href="#CMR17-2f" transform="translate(407.12281 0) scale(0.996264)"/>
      <use xlink:href="#CMR17-31" transform="translate(452.813287 0) scale(0.996264)"/>
      <use xlink:href="#CMR17-35" transform="translate(498.503765 0) scale(0.996264)"/>
      <use xlink:href="#CMR17-30" transform="translate(544.194242 0) scale(0.996264)"/>
      <use xlink:href="#CMR17-30" transform="translate(589.884719 0) scale(0.996264)"/>
      <use xlink:href="#CMR17-6b" transform="translate(665.651162 0) scale(0.996264)"/>
      <use xlink:href="#CMR17-57" transform="translate(713.944078 0) scale(0.996264)"/>
     </g>
    </g>
    <g id="line2d_9">
     <path d="M 633.259255 602.950347 
L 638.509255 602.950347 
L 643.759255 602.950347 
" style="fill: none; stroke: #f30000; stroke-opacity: 0.5; stroke-width: 8; stroke-linecap: square"/>
    </g>
    <g id="text_59">
     <!-- 3000 kWh/3000 kW -->
     <g transform="translate(660.559255 611.245347) scale(0.21 -0.21)">
      <use xlink:href="#CMR17-33" transform="scale(0.996264)"/>
      <use xlink:href="#CMR17-30" transform="translate(45.690477 0) scale(0.996264)"/>
      <use xlink:href="#CMR17-30" transform="translate(91.380954 0) scale(0.996264)"/>
      <use xlink:href="#CMR17-30" transform="translate(137.071431 0) scale(0.996264)"/>
      <use xlink:href="#CMR17-6b" transform="translate(212.837875 0) scale(0.996264)"/>
      <use xlink:href="#CMR17-57" transform="translate(261.130791 0) scale(0.996264)"/>
      <use xlink:href="#CMR17-68" transform="translate(356.227441 0) scale(0.996264)"/>
      <use xlink:href="#CMR17-2f" transform="translate(407.12281 0) scale(0.996264)"/>
      <use xlink:href="#CMR17-33" transform="translate(452.813287 0) scale(0.996264)"/>
      <use xlink:href="#CMR17-30" transform="translate(498.503765 0) scale(0.996264)"/>
      <use xlink:href="#CMR17-30" transform="translate(544.194242 0) scale(0.996264)"/>
      <use xlink:href="#CMR17-30" transform="translate(589.884719 0) scale(0.996264)"/>
      <use xlink:href="#CMR17-6b" transform="translate(665.651162 0) scale(0.996264)"/>
      <use xlink:href="#CMR17-57" transform="translate(713.944078 0) scale(0.996264)"/>
     </g>
    </g>
   </g>
  </g>
 </g>
</svg>
